<?xml version="1.0" encoding="UTF-8" standalone="no"?>
<!-- Generator: Adobe Illustrator 12.0.0, SVG Export Plug-In . SVG Version: 6.00 Build 51448)  -->
<svg
   xmlns:dc="http://purl.org/dc/elements/1.1/"
   xmlns:cc="http://creativecommons.org/ns#"
   xmlns:rdf="http://www.w3.org/1999/02/22-rdf-syntax-ns#"
   xmlns:svg="http://www.w3.org/2000/svg"
   xmlns="http://www.w3.org/2000/svg"
   xmlns:sodipodi="http://sodipodi.sourceforge.net/DTD/sodipodi-0.dtd"
   xmlns:inkscape="http://www.inkscape.org/namespaces/inkscape"
   version="1.1"
   baseProfile="basic"
   id="Layer_1"
   width="660.479"
   height="660.117"
   viewBox="0 0 660.479 660.117"
   style="overflow: visible;"
   xml:space="preserve"
   sodipodi:version="0.32"
   inkscape:version="0.46"
   sodipodi:docname="nrw_fluss.svg"
   inkscape:output_extension="org.inkscape.output.svg.inkscape"><metadata
   id="metadata229"><rdf:RDF><cc:Work
       rdf:about=""><dc:format>image/svg+xml</dc:format><dc:type
         rdf:resource="http://purl.org/dc/dcmitype/StillImage" /></cc:Work></rdf:RDF></metadata><defs
   id="defs227"><inkscape:perspective
   sodipodi:type="inkscape:persp3d"
   inkscape:vp_x="0 : 330.0585 : 1"
   inkscape:vp_y="0 : 1000 : 0"
   inkscape:vp_z="660.479 : 330.0585 : 1"
   inkscape:persp3d-origin="330.2395 : 220.039 : 1"
   id="perspective231" />
	
	
	

		
		
		
		
		
		
		
		
		
		
		
		
		
		
		
		
		
		
		
		
		
		
		
		
		
		
		
		
		
		
		
		
		
		
		
		
		
		
		
		
		
		
		
		
		
		
		
		
		
		
		
		
		
		
	<inkscape:perspective
   id="perspective3867"
   inkscape:persp3d-origin="330.2395 : 220.039 : 1"
   inkscape:vp_z="660.479 : 330.0585 : 1"
   inkscape:vp_y="0 : 1000 : 0"
   inkscape:vp_x="0 : 330.0585 : 1"
   sodipodi:type="inkscape:persp3d" />
	
	
	

		
		
		
		
		
		
		
		
		
		
		
		
		
		
		
		
		
		
		
		
		
		
		
		
		
		
		
		
		
		
		
		
		
		
		
		
		
		
		
		
		
		
		
		
		
		
		
		
		
		
		
		
		
		
	<inkscape:perspective
   id="perspective2519"
   inkscape:persp3d-origin="372.04724 : 350.78739 : 1"
   inkscape:vp_z="744.09448 : 526.18109 : 1"
   inkscape:vp_y="0 : 1000 : 0"
   inkscape:vp_x="0 : 526.18109 : 1"
   sodipodi:type="inkscape:persp3d" /></defs><sodipodi:namedview
   inkscape:window-height="956"
   inkscape:window-width="1280"
   inkscape:pageshadow="2"
   inkscape:pageopacity="0.0"
   guidetolerance="10.0"
   gridtolerance="10.0"
   objecttolerance="10.0"
   borderopacity="1.0"
   bordercolor="#666666"
   pagecolor="#ffffff"
   id="base"
   showgrid="false"
   inkscape:zoom="0.83878518"
   inkscape:cx="405.85565"
   inkscape:cy="352.95172"
   inkscape:window-x="-5"
   inkscape:window-y="-3"
   inkscape:current-layer="Layer_1" />



<g
   id="g146"
   transform="translate(2.000013e-2,4.7006056e-2)"
   style="stroke:#3e6dff;stroke-opacity:1;fill:none">
		<path
   id="path148"
   d="M -14,211 C -10.837,210.583 -3.298,209.454 -0.801,207.682 C 1.703,205.902 2.048,199.462 6.636,203.207 C 6.21,202.523 6.39,202.505 6.041,201.864 C 9.793,205.181 14.02,213.019 18.5,207.343 C 20.834,204.385 21.213,201.427 25.167,201.914 C 28.108,202.278 30.913,204.369 33.353,205.84 C 36.567,207.778 40.161,208.939 43.383,210.861 C 44.87,211.748 44.426,211.784 45.992,211.987 C 47.677,212.206 49.09,211.803 50.759,212.239 C 55.914,213.585 60.444,216.343 65.833,217.483 C 70.896,218.557 74.576,222.369 77.425,226.583 C 79.966,230.342 80.974,236.129 85.85,237.491 C 87.746,238.02 89.924,238.267 91.893,238.269 C 93.947,238.271 96.164,237.899 98.122,238.695 C 99.556,239.277 99.018,239.607 99.122,240.747 C 99.247,242.159 101.278,243.042 99.853,244.588 C 99.582,244.889 95.68,246.637 95.939,246.935 C 96.894,248.031 96.932,248.748 97.649,249.972 C 99.062,252.38 102.537,252.958 104.418,254.918 C 107.95,258.605 109.26,263.986 114.425,265.916 C 119.001,267.625 125.98,266.195 130.182,268.743 C 133.509,270.763 131.687,273.277 130.832,275.501 C 129.94,277.812 129.019,280.228 129.75,283.178 C 130.305,285.428 131.153,288.088 132.083,290.166 C 133.861,294.166 134.732,293.018 137.569,292.314 C 140.098,291.69 143.425,289.932 146.016,291.182 C 147.663,291.976 149.1,293.677 149.744,295.37 C 150.578,297.578 148.901,298.796 149.053,300.904 C 149.147,302.234 150.541,303.37 151.424,304.242 C 153.382,306.179 155.018,308.242 154.497,311.166 C 153.895,314.52 150.202,314.617 148.313,317.167 C 145.941,320.376 149.159,320.022 151.574,321.096 C 158.262,324.059 150.917,328.393 154.25,333.41 C 155.818,335.776 158.214,337.281 158.824,340.183 C 159.72,344.456 154.844,346.476 152.257,348.706 C 150.772,349.989 149.917,351.626 148.361,352.916 C 146.884,354.145 145.861,355.382 147.334,357.059 C 149.005,358.965 152.089,359.183 154.334,359.997 C 156.022,360.612 157.147,362.154 158.085,363.537 C 158.918,364.766 160.618,366.294 160.378,367.75 C 159.919,370.553 157.291,373.494 156.125,376.08 C 155.611,377.217 155.127,378.861 155.5,380.156 C 156.423,383.373 164.693,388.012 163.195,391.249 C 162.174,393.454 158.788,391.963 158.289,395.084 C 158.127,396.094 160.795,404.247 161.457,404.891 C 162.318,405.732 162.52,406.39 163.962,406.093 C 166.754,405.517 171.837,404.271 171.833,408.829 C 171.831,410.963 171.761,413.328 172.441,415.373 C 172.721,416.209 173.111,417.394 174.171,417.43 C 174.939,417.452 174.987,416.871 175.442,416.56 C 176.274,415.984 177.309,415.601 178.168,414.997 C 179.243,414.236 178.91,412.587 179.981,411.771 C 181.094,410.927 182.356,411.235 183.124,412.373 C 184.285,414.102 181.564,415.472 181.609,417.369 C 181.683,420.476 184.517,422.725 186.652,424.584 C 188.357,426.063 188.527,426.397 188.207,428.496 C 187.927,430.309 187.467,430.642 185.957,431.586 C 184.178,432.695 182.054,433.142 182.978,435.882 C 183.666,437.912 186.582,438.406 188.343,438.714 C 191.012,439.174 193.335,441.224 195.531,442.946 C 197.304,444.342 201.885,446.694 202.688,448.863 C 203.048,449.832 202.617,452.449 202.495,453.499 C 202.308,455.063 201.648,455.72 201.307,456.904 C 200.517,459.644 200.434,460.015 202.828,462.086 C 204.641,463.65 206.185,464.016 206.827,466.5 C 207.744,470.077 205.217,470.623 203.306,472.738 C 200.014,476.391 201.848,480.927 205.068,484.562 C 208.33,488.241 213.093,488.65 217.441,490.221 C 218.212,493.107 214.337,496.219 212.493,497.825 C 209.977,500.014 208.388,501.526 207.727,504.978 C 206.38,512.066 215.849,508.118 217.243,513.496 C 217.889,516.007 215.931,519.184 217.755,521.181 C 219.798,523.415 222.789,524.073 225.17,525.827 C 229.649,529.139 228.063,534.78 232.162,538.089 C 235.603,540.862 241.005,542.054 243.257,546.235 C 244.715,548.945 245.336,551.92 246.907,554.45 C 248.891,557.654 251.053,560.519 251.008,564.493 C 250.987,565.993 250.956,567.86 250.521,569.259 C 249.817,571.515 249.258,571.682 249.667,573.915 C 249.966,575.561 250.318,577.322 251.669,578.442 C 254.061,580.431 257.523,579.68 259.734,582.255 C 262.847,585.865 263.503,591.568 265.151,595.839 C 267.148,600.992 270.789,604.55 274.476,608.568 C 276.352,610.611 278.08,612.981 280.463,614.234 C 280.376,614.408 280.234,614.523 280.04,614.58 C 281.413,616.008 282.988,617.535 284.814,618.244 C 287.873,619.429 289.585,617.09 292.168,617.746 C 296.637,618.891 295.689,625.651 300.407,627.576 C 303.83,628.972 304.726,627.986 307.751,626.999 C 308.649,626.701 310.039,626.815 311.156,626.492 C 312.606,626.073 313.25,625.115 314.844,625.142 C 321.586,625.262 327.956,635.903 327.823,641.828 C 327.756,645.064 326.269,647.388 325.177,650.173 C 323.377,654.749 323.739,658.222 326.615,661.721"
   style="fill:none;stroke:#3e6dff;stroke-width:3;stroke-opacity:1" />
		<path
   id="path150"
   d="M -21.5,416 C -16.451,412.998 -9.644,415.816 -4.299,415.768 C 1.286,415.71 0.639,410.71 5.169,410.155 C 6.924,409.939 10.459,413.199 11.766,412.038 C 13.348,410.632 7.93,407.229 9.912,404.247 C 11.212,402.289 14.463,402.825 16.481,403.557 C 19.597,401.124 18.873,394.86 21.16,391.339 C 22.639,389.068 23.017,388.233 23.503,385.505 C 23.932,383.078 23.961,381.567 25.763,380.026 C 30.534,375.948 39.326,372.257 41.645,366.067 C 42.635,363.422 42.336,360.799 43.665,358.083 C 45.467,354.384 47.985,351.065 49.598,347.269 C 51.851,341.947 53.925,336.163 54.823,330.498 C 55.219,328.014 56.139,324.856 55.508,322.174 C 55.121,320.545 53.904,319.772 53.009,318.34 C 51.446,315.861 52.215,316.511 52.177,313.923 C 52.114,309.852 49.692,309.132 46.583,306.694 C 43.495,304.27 42.979,300.615 40.02,298.658 C 37.421,296.941 30.495,295.756 29.478,292.168 C 28.794,289.753 30.209,289.473 28.678,286.926 C 27.718,285.329 25.541,283.451 25.514,281.511 C 25.48,279.161 27.202,278.609 26.175,276.26 C 25.305,274.28 22.404,272.906 20.839,271.697 C 18.215,269.668 15.608,268.091 14.818,264.688 C 14.465,263.169 14.835,261.797 14.269,260.198 C 13.692,258.552 12.415,257.308 12.164,255.51 C 11.612,251.593 12.74,250.475 8.182,248.657 C 5.039,247.409 2.551,247.367 0.333,243.834 C 0.013,243.319 -0.224,242.834 -0.403,242.377"
   style="fill:none;stroke:#3e6dff;stroke-opacity:1" />
		<path
   id="path152"
   d="M 516.167,199.834 C 509.729,195.888 505.111,204.644 500.995,206.924 C 498.594,208.258 495.133,206.258 492.573,206.07 C 488.042,205.732 485.863,208.046 484.394,212.208 C 483.938,213.5 483.475,214.836 482.49,215.836 C 482.23,216.103 479.285,217.787 479.294,217.531 C 479.273,218.649 476.337,220.196 475.174,220.284 C 473.988,220.374 471.712,219.112 470.596,218.67 C 467.94,217.615 465.504,215.971 462.834,214.985 C 459.653,213.815 457.146,213.673 454.343,211.668 C 452.898,210.633 451.858,209.814 450.258,209.355 C 448.973,208.988 447.085,209.564 445.834,209.037 C 443.563,208.079 440.828,202.454 440.907,200.505 C 441.029,197.539 444.298,195.188 444.496,192.171 C 444.739,188.54 442.683,186.4 440.002,184.003 C 434.743,179.314 429.001,176.473 423.167,173.19 C 417.695,170.113 412.719,170.294 406.583,172.182 C 401.479,173.748 395.229,176.157 389.835,176.172 C 386.467,176.186 384.545,175.034 381.487,173.693 C 378.514,172.384 376.66,172.199 373.167,171.839 C 367.604,171.269 361.358,172.29 356.167,171.026 C 349.098,169.303 345.438,164.035 340.335,158.682 C 338.908,157.19 336.897,155.014 334.894,154.355 C 333.139,153.778 331.031,154.793 329.424,153.583 C 328.611,152.972 328.126,151.489 327.251,150.76 C 325.903,149.638 322.897,148.415 322.467,146.604 C 322.174,145.376 323.797,144.014 323.53,142.928 C 322.908,140.37 317.866,140.736 316.009,138.811 C 316.238,138.733 316.533,138.818 316.822,138.708 C 314.926,135.355 312.933,132.684 310.868,129.354 C 311.764,127.454 313.91,127.166 314.751,125.674 C 315.555,124.252 315.136,122.168 315.223,120.574 C 316.189,120.386 316.731,119.678 317.786,119.72 C 319.768,115.003 313.469,115.401 310.816,114.53 C 306.698,113.176 304.464,112.346 301.783,108.503 C 303.313,104.642 303.468,102.94 299.595,100.34 C 298.536,99.629 296.865,99.82 295.825,99.214 C 292.967,97.541 294.046,94.923 294.044,92.245 C 292.481,91.694 289.467,91.601 288.159,90.878 C 285.672,89.498 286.777,87.3 285.699,85.599 C 284.488,83.692 281.517,82.865 280.816,80.503 C 280.336,78.873 281.159,76.799 281.044,75.244 C 278.121,73.78 271.283,72.706 271.044,68.213 C 269.499,68.421 268.062,68.823 266.552,68.723 C 266.386,67.236 267.05,65.911 266.835,64.515 C 266.466,62.113 265.201,62.514 264.242,60.699 C 262.601,57.595 266.597,55.545 265.331,52.358 C 263.548,47.88 261.316,49.128 263.167,44.18 C 263.934,42.122 265.089,38.283 264.03,35.93 C 263.416,34.555 260.924,33.038 259.909,31.826 C 258.8,30.501 258.083,28.93 257.014,27.585 C 254.224,24.064 252.565,23.682 254.747,19.349 C 257.063,14.743 256.289,14.663 252.96,11.036 C 252.477,10.511 249.762,7.974 249.537,7.265 C 249.057,5.747 250.419,4.374 250.558,2.932 C 250.677,1.718 250.306,0.55 249.814,-0.651"
   style="fill:none;stroke:#3e6dff;stroke-opacity:1" />
		<path
   id="path154"
   d="M 663.499,175.5 C 662.056,174.855 651.501,169.937 653.05,175.757 C 653.594,177.804 656.565,177.012 656.249,179.75 C 655.854,183.16 652.374,180.904 650.74,180 C 649.358,179.233 645.499,178.08 644.97,181 C 644.446,183.917 653.658,184.565 655.556,186.194 C 656.66,187.145 657.294,189.86 656.757,191.506 C 656.383,192.652 655.115,192.945 654.194,193.423 C 652.65,194.222 651.742,195.132 650.494,196.333 C 649.391,197.396 646.726,198.231 646.861,199.963 C 646.964,201.225 648.804,202.628 648.09,204.13 C 647.73,204.882 646.471,205.044 646.153,205.831 C 645.773,206.784 646.081,208.28 646.595,209.148 C 647.101,210.002 648.112,210.187 648.555,211.001 C 649.615,212.944 648.044,215.669 646.645,217.027 C 645.962,217.69 644.957,218.013 644.362,218.723 C 643.772,219.43 643.696,220.519 643.303,221.331 C 642.324,223.362 640.51,223.12 639.172,224.546 C 638.755,224.991 637.989,227.368 637.846,228.173 C 637.644,229.277 637.851,229.328 638.784,230.206 C 639.468,230.848 640.359,231.315 640.665,232.16 C 641.126,233.451 640.07,234.182 639.995,235.163 C 639.813,237.384 641.921,237.928 642.706,239.618 C 643.698,241.763 640.059,242.233 640.337,244.08 C 640.584,245.726 643.8,246.572 642.254,248.626 C 641.917,249.074 640.985,249.155 640.567,249.664 C 640.06,250.28 640.169,250.768 639.993,251.497 C 639.759,252.49 639.236,253.901 639.325,254.83 C 639.528,256.992 642.363,256.947 643.981,257.673 C 645.368,258.293 647.96,259.94 649.555,259.486 C 651.078,259.056 651.178,256.74 652.986,256.442 C 654.623,256.172 656.733,256.765 658.253,257.088 C 658.141,256.209 658.814,254.715 658.735,253.942 C 660.854,254.725 662.347,256.671 664.491,257.496"
   style="fill:none;stroke:#3e6dff;stroke-width:3;stroke-opacity:1" />
		<path
   id="path156"
   d="M 582.999,-24 C 585.439,-17.295 584.969,-8.938 581.958,-2.465 C 581.812,-2.158 573.564,10.453 579.583,9.014 C 578.268,9.327 576.632,10.035 575.062,10.074 C 575.535,10.061 578.148,14.208 577.998,15.002 C 577.344,18.486 572.753,15.477 570.984,15.505 C 567.448,15.568 568.974,16.644 567.998,19.002 C 567.383,20.501 567.158,23.44 566.998,25.002 C 566.947,25.496 565.977,27.702 565.936,27.487 C 566.129,28.491 567.573,28.733 567.633,29.378 C 567.874,31.972 570.259,31.392 567.258,33.64 C 565.464,34.984 560.774,32.928 559.871,35.693 C 559.388,37.19 560.6,36.462 561.437,37.561 C 561.873,38.125 562.541,39.281 562.5,39.999 C 562.384,41.931 561.562,41.072 560.469,42.187 C 557.281,45.425 564.194,48.265 559.857,51.936 C 558.103,53.417 555.872,54.162 554.372,56.011 C 552.899,57.824 553.154,59.213 552.139,61.199 C 551.056,63.307 549.66,63.736 551.07,66.449 C 552.155,68.542 552.927,69.512 553.006,72.005 C 553.045,73.356 553.067,73.396 552.612,74.491 C 552.155,75.606 551.01,76.039 550.725,77.256 C 550.287,79.109 551.958,81.008 551.496,82.755 C 550.233,87.531 543.998,86.154 540.567,87.507 C 539.404,87.965 535.498,89.753 535.223,90.993 C 534.755,93.125 537.744,93.397 538.994,94.256 C 542.989,96.994 541.463,101.319 543.189,105.256 C 544.018,107.146 545.078,108.208 547.494,108.006 C 551.037,107.71 550.416,103.434 553.024,102.488 C 554.89,101.815 556.356,103.707 557.975,103.35 C 558.95,103.132 559.163,102.729 560.225,102.737 C 561.078,102.751 562.591,104.383 563.129,102.907 C 563.499,101.888 560.557,100.168 560.529,98.785 C 560.525,98.612 568.397,99.09 568.737,99.384 C 569.188,99.778 568.831,100.67 569.425,101.073 C 572.5,103.17 575.643,99.077 577.736,97.741 C 580.416,96.032 580.157,99.317 581.98,99.514 C 584.006,99.734 584.255,96.492 586.43,99.258 C 587.868,101.089 587.344,102.819 590.493,102.757 C 592.139,102.729 592.014,102.624 593.181,101.637 C 594.255,100.725 593.66,99.689 595.299,99.936 C 597.952,100.334 596.451,103.501 598.439,104.314 C 600.636,105.21 601.133,101.545 603.067,104.199 C 604.566,106.255 602.813,107.285 606.232,107.755 C 608.709,108.096 610.375,107.249 612.744,107.255 C 613.611,107.257 614.831,107.045 615.553,107.449 C 616.856,108.184 616.052,108.614 616.805,109.698 C 617.773,111.093 619.281,110.802 620.244,111.802 C 621.396,112.996 619.894,113.914 621.431,115.565 C 623.215,117.484 627.216,117.619 629.56,118.677 C 630.566,119.129 632.275,120.037 632.935,121.06 C 633.858,122.486 633.037,123.98 633.496,125.503 C 633.89,126.798 635.35,127.554 635.605,128.852 C 635.868,130.172 634.596,131.373 635.026,132.686 C 635.818,135.094 642.371,137.458 644.449,139.064 C 648.114,141.892 646.943,145.681 647.735,149.767 C 648.365,153.016 650.522,156.68 654.231,156.504 C 656.132,156.416 656.654,154.233 658.21,153.776 C 660.615,153.075 663.511,153.499 666.001,153.499"
   style="fill:none;stroke:#3e6dff;stroke-width:3;stroke-opacity:1" />
		<path
   id="path158"
   d="M 131.5,271 C 134.085,271 136.632,271.071 139.219,271.057 C 142.041,271.036 144.864,270.881 147.671,270.598 C 152.343,270.12 157.347,269.464 161.648,267.458 C 172.357,262.462 178.388,259.9 190.836,263 C 196.635,264.442 201.896,263.523 206.836,262.504 C 214.877,260.842 213.996,258.276 219.633,253.435 C 223.477,250.128 229.768,251.389 234.182,249.2 C 239.62,246.505 240.597,241.437 248.203,243.17 C 251.624,243.948 254.942,245.258 258.085,246.816 C 259.566,247.548 263.064,251.809 263.752,250.407 C 264.169,253.02 268.525,253.663 270.715,253.795 C 270.921,255.067 270.338,255.89 269.277,256.444 C 270.945,257.67 273.117,258.576 275.056,259.2 C 277.384,259.949 278.852,261.282 280.695,262.574 C 282.799,264.051 285.458,263.27 287.447,264.57 C 289.209,265.716 290.26,267.674 292.048,268.732 C 294.152,269.981 296.58,270.628 298.67,272.003 C 305.615,276.57 305.989,276.422 312.023,271.474 C 314.725,269.254 314.686,268.581 318.171,267.838 C 321.205,267.192 323.884,268.412 326.328,266.883 C 327.807,265.962 328.258,263.956 329.67,263.07 C 330.98,262.246 332.855,262.382 334.255,261.507 C 334.976,261.057 335.188,260.709 335.945,260.399 C 336.466,260.186 337.674,260.297 338.255,260.007 C 339.719,259.275 339.947,257.909 341.758,257.257 C 346.223,255.652 350.987,257.824 355.522,256.534 C 359.85,255.304 363.397,252.461 367.472,250.671 C 369.556,249.756 371.743,249.104 374.035,249.043 C 376.723,248.979 378.146,250.263 380.562,251.192 C 384.194,252.588 387.326,252.827 390.46,255.268 C 393.343,257.509 396.186,260.311 400.021,260.65 C 404.959,261.087 409.137,258.394 415.5,259.023 C 417.354,259.207 430.346,262.669 430.545,260.037 C 432.332,259.766 434.114,261.017 435.756,260.517 C 436.902,260.164 437.364,258.979 438.356,258.454 C 439.96,257.607 441.36,258.543 442.849,257.866 C 443.978,257.354 445.007,255.509 446.148,255.132 C 450.71,253.628 457.073,254.259 461.502,252.201 C 463.842,251.113 465.515,248.235 467.65,247.472 C 470.23,246.549 473.433,247.795 476.171,247.169 C 481.221,246.014 485.859,241.61 490.837,239.14 C 495.341,236.904 499.881,234.909 504.173,232.205 C 512.236,227.132 513.909,227.86 522.837,229.835 C 524.278,230.154 525.784,231.003 527.504,230.502 C 530.841,229.525 528.97,228.53 531.34,226.841 C 534.779,224.389 535.284,223.874 540.837,223.835"
   style="fill:none;stroke:#3e6dff;stroke-opacity:1" />
		<path
   id="path160"
   d="M 154,327.5 C 157.13,327.5 160.936,328.104 163.998,327.497 C 167.308,326.846 169.249,325.107 173.415,325.573 C 174.25,328.647 178.513,329.765 180.877,332.124 C 183.565,334.81 184.103,337.193 186.002,340 C 187.063,341.566 187.912,343.282 188.886,344.902 C 189.429,345.806 190.288,346.761 190.627,347.756 C 190.924,348.638 190.596,349.665 191.001,350.496 C 191.203,350.911 192.355,351.975 192.793,352.371 C 193.412,352.936 194.641,353.623 195.498,353.672 C 196.29,353.72 198.628,353.121 199.186,352.605 C 200.333,351.544 199.693,349.538 200.983,348.473 C 202.223,347.452 205.421,348.309 206.394,347.296 C 209.36,344.223 205.943,338.664 212.498,339.499 C 216.686,340.033 218.395,346.187 220.482,339.972 C 222.13,335.06 217.096,333.355 218.076,328.576 C 221.161,327.93 221.176,330.162 223.366,331.125 C 225.93,332.252 229.382,332.298 232.138,332.858 C 232.049,335.104 234.6,342.561 238.004,340.63 C 238.837,340.158 238.569,339.194 238.928,338.472 C 239.586,337.131 240.087,337.122 241.331,336.493 C 242.077,336.115 242.478,335.829 243.496,335.831 C 244.267,335.832 245.25,335.664 245.998,335.829 C 247.145,336.082 248.097,336.808 249.144,337.299 C 250.39,337.89 250.993,337.659 252.248,337.497 C 252.633,337.447 253.061,337.226 253.411,337.155 C 254.28,336.98 254.994,336.928 255.899,336.8 C 255.897,336.08 256.63,334.381 257.08,333.827 C 257.6,333.181 258.812,332.409 259.6,332.153 C 260.57,331.839 261.413,332.69 262.4,332.836 C 265.796,333.335 268.664,331.36 271.378,334.623 C 272.756,336.278 272.979,338.688 274.628,340.374 C 276.066,341.851 278.065,342.603 279.739,343.751 C 280.552,344.311 280.552,344.459 281.046,343.673 C 281.595,342.798 282.058,342.076 282.915,341.41 C 283.73,340.773 284.519,339.366 285.613,339.979 C 286.285,340.354 287.136,340.917 287.686,341.477 C 287.987,341.784 288.288,342.578 288.767,342.647 C 289.212,342.71 289.632,342.054 289.936,341.789 C 290.312,341.46 290.897,341.185 291.17,340.923 C 291.524,340.579 291.679,339.941 291.591,339.412 C 291.451,338.583 291.227,338.664 291.608,337.767 C 292.165,336.462 293.498,335.407 295.004,335.413 C 296.704,335.422 298.017,335.296 299.674,335.759 C 299.856,335.517 299.957,335.229 300.018,334.923 C 300.539,334.938 301.182,334.581 301.582,334.937 C 302.176,335.453 300.975,335.545 301.183,336.32 C 301.239,336.529 303.037,336.361 303.332,336.666 C 304.186,337.547 305.722,338.298 307,337.921 C 308.069,337.608 309.03,335.878 309.64,335.023 C 310.557,333.725 310.625,332.002 311.615,330.726 C 312.435,329.663 313.578,328.844 314.665,328.077 C 315.195,327.704 315.731,327.294 316.299,326.973 C 317,326.575 317.208,326.73 318.024,326.671 C 318.514,326.64 318.755,326.337 319.109,326.204 C 319.783,325.948 320.536,325.877 321.151,325.455 C 322.049,324.837 322.487,324.559 323.574,324.584 C 324.245,324.603 325.252,324.708 325.433,323.834 C 325.478,323.615 325.329,323.063 325.406,322.709 C 325.731,321.157 326.762,321.355 328.17,321.766 C 328.829,321.287 328.358,320.596 328.188,320.098 C 328.805,320.068 329.358,320.068 329.929,319.918 C 330.059,319.887 330.215,319.956 330.344,319.921 C 330.514,319.877 330.672,319.558 330.781,319.536 C 331.104,319.478 331.409,319.703 331.679,319.671 C 332.448,319.58 332.441,318.929 333.014,318.542 C 333.445,318.253 333.951,318.313 334.426,318.202 C 334.901,318.096 335.259,317.869 335.732,317.723 C 336.833,317.381 338.061,317.746 339.183,317.746 C 339.769,317.746 340.707,317.559 341.26,317.746 C 341.915,317.97 341.865,318.49 342.363,318.975 C 342.969,319.57 343.576,319.456 344.178,319.079 C 344.838,318.664 344.968,317.681 345.767,317.575 C 345.834,317.565 346.105,317.73 346.163,317.774 C 346.205,317.728 346.184,317.706 346.27,317.72 C 346.231,317.887 347.276,318.484 347.658,318.68 C 348.387,319.053 348.879,318.992 349.658,318.829 C 350.29,318.701 351.153,318.345 351.756,318.315 C 352.503,318.285 352.739,318.649 353.362,318.886 C 354.169,319.194 354.716,319.151 355.283,318.448 C 355.762,317.85 355.717,316.787 356.514,316.736 C 357.126,316.696 357.665,317.549 358.339,317.411 C 358.877,317.304 359.41,316.456 359.943,316.278 C 361.621,315.715 362.732,315.805 364.116,314.594 C 365.429,313.445 366.635,312.781 367.644,311.264 C 368.524,309.94 368.623,305.618 370.484,304.942 C 373.274,303.921 375.588,307.285 376.382,309.113 C 376.929,310.356 376.981,312.844 376.67,314.152 C 376.532,314.742 376.228,314.809 376.566,315.427 C 376.725,315.716 377.272,316.148 377.584,316.24 C 378.061,316.386 378.417,316.24 378.859,316.468 C 379.198,316.64 379.504,316.931 379.837,317.135 C 380.358,317.451 380.608,317.541 380.944,318.072 C 382.058,319.801 382.82,321.743 384.118,323.366 C 388.248,328.532 400.764,331.399 406.979,332.599 C 411.29,333.432 410.833,334.664 413.492,336.997 C 415.441,338.707 418.807,341.391 419.591,337.047 C 425.697,335.908 420.793,352.745 431.521,351.996 C 435.447,351.725 437.981,348.683 443.035,348.958 C 446.764,349.164 451.001,349.484 455.013,349.484 C 459.932,349.484 463.416,349.925 466.995,347.233 C 471.507,343.837 471.738,342.801 477.109,345.36 C 485.422,349.32 482.773,356.833 485.88,364.496 C 488.935,372.008 490.603,376.466 491.096,384.897 C 493.159,385.986 495.396,387.262 497.005,388.984"
   style="fill:none;stroke:#3e6dff;stroke-opacity:1" />
	</g></svg>